<?xml version="1.0" encoding="utf-8"?>
<!-- Generator: Adobe Illustrator 26.0.3, SVG Export Plug-In . SVG Version: 6.00 Build 0)  -->
<svg version="1.1" id="Capa_1" xmlns="http://www.w3.org/2000/svg" xmlns:xlink="http://www.w3.org/1999/xlink" x="0px" y="0px"
	 viewBox="0 0 120 120" style="enable-background:new 0 0 120 120;" xml:space="preserve">
<style type="text/css">
	.st0{fill:#FFFFFF;}
</style>
<g>
	<path d="M459.2-425.2c-0.4-0.7-0.7-1.4-1.1-2c1.1,0.2,1.4,0.9,1.6,1.8C459.5-425.4,459.4-425.3,459.2-425.2z"/>
	<path d="M501.4-464.6c-0.4-0.5-0.9-0.9-1.3-1.4C501.1-466.1,501.5-465.6,501.4-464.6z"/>
</g>
<path d="M-85.4,89.5c-5.5-4.3-11.1-8.9-16.8-13.3c-0.8-0.6-1.8-1.2-2.7-1.2c-7.4-0.1-14.9-1.5-22,1.8c-2.6-3-2.1-6.2-1.7-9.4
	c0.7-5.2,1.5-10.4,2.2-15.6c0.7-5.3,3.3-7.6,8.7-6.5c4.2,0.9,8.4,1.3,12.5,0.4c3.2-0.7,6.1-2.6,9-4.2c2.2-1.2,4.2-2.8,6.5-3.9
	c0.9-0.5,2.3-0.6,3.3-0.3c4.3,1.1,8.4,7.1,8,11.6c0,0.2-0.1,0.3,0,0.5c1,12-2.8,23.5-3.3,35.4C-81.8,87.1-82.5,88.8-85.4,89.5z
	 M-104.7,58.6c-2.2-1.5-3.7-3.1-5.5-3.5c-3.9-0.8-7.9-1-12.3-1.4c-0.3,4.1-0.7,8.6-1,13.2c4.7,0.4,8.9,1.4,13.1,1.1
	c5.2-0.3,8.7,1.6,11.9,5.4c2.8,3.3,5.9,6.5,10.1,8.3c3.8-17,5.2-29.1,3.9-34.5c-3.4,1.9-6.8,3.7-10.2,5.6
	C-98.3,54.7-101.7,56.8-104.7,58.6z"/>
<path d="M-66,13.8c19.2,10.9,29.6,26.7,30.4,48.4c0.5,13.6-8.7,38-16.2,42.9c-3.1-2.2-4.2-5.1-2.9-9.1c0.9-2.7,2.3-5.3,3.7-7.8
	c3.2-5.5,5.8-11,7.2-17.3c2-8.6,0.6-16.9-1.6-25.1C-47.5,38-52.6,31.9-58.8,27C-63.1,23.7-64.8,19.2-66,13.8z"/>
<path d="M-76.5,103.6C-79.4,99-79,95-77,91.1c1-2,2.3-3.8,3.4-5.7c5.8-10.2,8.3-21.1,7.4-32.8c-0.3-3.5-1.3-7-2.6-10.3
	c-0.8-1.9-2.6-3.5-4.2-4.8c-3.6-2.8-6.3-6.1-7.2-10.7c6.4,1.3,14.5,8,17.3,14.1c4.2,9.3,4.8,19,3.2,28.9
	c-1.7,10.9-6.1,20.7-12.2,29.8C-72.9,101.2-74.8,102.2-76.5,103.6z"/>
<path d="M-46,10c14.4,12.4,25.6,26.6,26.1,46.4c0.3,13.5-1.3,26.9-9.4,38.7c-3-1.3-3.5-3.5-3.3-5.7c0.2-2.2,0.6-4.4,1.4-6.4
	c4.2-9.6,5.5-19.6,4.9-29.9c-0.4-7.2-3.3-13.8-7.3-19.8c-2.5-3.8-5.4-7.4-8-11.2C-44.1,18.5-46.3,14.7-46,10z"/>
<path class="st0" d="M-104.7,58.6c3.1-1.8,6.5-3.9,9.9-5.9c3.4-1.9,6.8-3.7,10.2-5.6c1.3,5.4,0,17.6-3.9,34.5
	c-4.3-1.8-7.3-5-10.1-8.3c-3.2-3.8-6.7-5.7-11.9-5.4c-4.1,0.3-8.4-0.6-13.1-1.1c0.4-4.6,0.7-9.1,1-13.2c4.4,0.5,8.4,0.6,12.3,1.4
	C-108.5,55.5-107,57.1-104.7,58.6z"/>
<path d="M15.8,26.8c2.7-3.8,2.8-2.1,5.4-5.7c-0.2,0,0.6-0.4,0.9-0.2c7.6,4.5,15.6,3.7,24.1,3.2c18-1,36.1-1,54.2-1.2
	c3,0,6.3,0.5,9.1,1.5c5.1,1.8,7,5.5,6,11.1c-0.7,4-1.4,8-2.9,11.8c-5.3,14.2-10.9,28.2-16.8,43.5c-13.6,0.3-28.3,3.6-43.2,0.8
	c-12.2-2.3-24.5-4.4-36.7-7C5.5,82.4,1.4,73.9,5.5,64.3c2.9-6.8,5.7-13.7,8.8-20.5C16.3,39.2,18.4,30.1,15.8,26.8z M19.2,72.9
	c20.1,8.5,50,11.8,68,7.2c4.9-15.1,9.9-30.7,15.2-46.9c-2.4-0.2-3.9-0.5-5.3-0.5c-10.9,0.1-21.8,0.8-32.7,0.2
	c-9.6-0.5-18.6,1.2-27.7,3.6c-4.7,1.2-7.3,3.7-8.6,8.5C25.4,54.2,22.3,63.2,19.2,72.9z"/>
<path class="st0" d="M19.2,72.9c3.1-9.6,6.3-18.7,8.9-27.9c1.3-4.8,3.9-7.3,8.6-8.5c9.1-2.4,18.1-4.1,27.7-3.6
	c10.8,0.6,21.8-0.1,32.7-0.2c1.5,0,2.9,0.3,5.3,0.5C97.1,49.4,92,64.9,87.1,80.1C69.2,84.7,39.3,81.3,19.2,72.9z M83.4,47.8
	c-15.7-7.7-31.3-6.6-48.5-3.5c5.5,4.5,8.4,10.6,15.5,9.3c7.5-1.4,14.8-1.4,22.2,0.7C77.5,55.7,81,54,83.4,47.8z M32,59.3
	c5.9,6.7,8.9,9.1,12.7,9.1c8.4,0.2,16.8,0.3,25.2-0.1c2.4-0.1,6.2-1.5,6.7-3.2c1.3-4-3.1-4.6-5.7-5.9c-0.6-0.3-1.2-0.5-1.8-0.6
	C56.8,58,44.5,56.4,32,59.3z"/>
<path d="M83.4,47.8c-2.4,6.2-5.9,7.9-10.9,6.5c-7.4-2.1-14.7-2.1-22.2-0.7c-7.1,1.4-10-4.7-15.5-9.3C52.1,41.3,67.7,40.1,83.4,47.8z
	"/>
<path d="M32,59.3c12.6-2.9,24.9-1.3,37.1-0.6c0.6,0,1.2,0.3,1.8,0.6c2.6,1.3,7,1.9,5.7,5.9c-0.5,1.6-4.3,3.1-6.7,3.2
	c-8.4,0.4-16.8,0.3-25.2,0.1C40.9,68.4,37.9,66,32,59.3z"/>
</svg>
